<?xml version="1.0" standalone="no"?>
<!DOCTYPE svg PUBLIC "-//W3C//DTD SVG 20010904//EN"
 "http://www.w3.org/TR/2001/REC-SVG-20010904/DTD/svg10.dtd">
<svg version="1.0" xmlns="http://www.w3.org/2000/svg"
 width="800.000000pt" height="800.000000pt" viewBox="0 0 800.000000 800.000000"
 preserveAspectRatio="xMidYMid meet">
<metadata>
Created by potrace 1.11, written by Peter Selinger 2001-2013
</metadata>
<g transform="translate(0.000000,800.000000) scale(0.100000,-0.100000)"
fill="#000000" stroke="none">
<path d="M3855 7749 c-389 -224 -836 -457 -1032 -540 -150 -63 -343 -130 -387
-134 -22 -2 -46 1 -53 7 -19 15 -15 77 7 127 11 24 20 45 20 48 0 3 -18 -9
-39 -26 -131 -104 -368 -251 -521 -325 -119 -57 -332 -132 -455 -161 -86 -20
-293 -60 -357 -69 l-46 -7 -8 -77 c-15 -163 15 -952 45 -1172 5 -36 9 -72 9
-80 0 -14 10 -127 17 -190 1 -14 5 -32 8 -40 3 -8 5 -22 5 -30 0 -25 9 -94 15
-110 3 -8 9 -42 13 -75 4 -33 8 -62 9 -65 0 -3 4 -27 9 -55 21 -140 96 -492
131 -620 120 -439 190 -646 317 -940 43 -99 210 -434 257 -513 21 -37 92 -161
156 -277 65 -115 143 -255 175 -310 32 -55 61 -110 64 -122 16 -52 -35 -82
-112 -64 -23 5 -42 6 -42 2 0 -11 260 -294 418 -455 159 -160 383 -364 637
-581 77 -65 185 -158 240 -205 55 -47 120 -101 145 -120 25 -19 146 -118 270
-220 124 -102 241 -198 261 -213 l36 -27 284 236 c691 573 927 776 1142 978
126 118 410 416 520 547 l55 66 -54 -10 c-63 -11 -104 7 -104 46 0 23 170 331
178 322 3 -2 1 -10 -4 -18 -5 -7 1 -1 13 13 13 14 23 30 23 36 0 6 9 19 21 30
12 10 33 42 47 69 29 56 39 92 17 60 -32 -46 -46 -59 -27 -25 43 79 95 160 99
156 3 -2 -3 -16 -13 -30 -9 -15 -14 -29 -11 -32 8 -9 39 55 32 66 -4 6 29 77
73 158 106 196 166 317 207 416 18 44 52 126 75 181 120 290 248 769 324 1215
59 351 88 604 118 1025 12 187 17 1009 6 1021 -7 7 -96 26 -210 44 -209 34
-455 97 -615 157 -186 69 -382 179 -598 335 l-130 94 24 -49 c27 -54 30 -113
7 -136 -20 -19 -90 -4 -246 54 -325 121 -644 285 -1131 582 -103 62 -188 113
-190 113 -2 0 -67 -37 -144 -81z m-670 -609 c3 -5 -3 -10 -15 -10 -12 0 -18 5
-15 10 3 6 10 10 15 10 5 0 12 -4 15 -10z m399 -24 c43 -14 88 -32 101 -40 21
-14 22 -19 14 -54 -5 -22 -9 -277 -9 -568 -2 -818 -1 -1946 1 -2400 0 -227 -2
-422 -6 -433 -4 -12 -2 -28 5 -36 7 -9 8 -20 2 -32 -5 -10 -10 -79 -11 -153
-4 -231 -3 -223 -28 -225 -20 -1 -23 3 -24 39 0 23 -3 50 -6 61 -9 32 -13 332
-13 930 0 308 0 605 -1 660 -1 128 -1 113 -1 235 0 58 1 164 3 235 2 129 2
168 -2 275 -2 30 -2 69 -1 85 2 17 1 309 -1 650 -4 661 -10 751 -46 716 -14
-13 -14 -18 -4 -24 24 -15 15 -54 -14 -65 l-28 -10 29 -1 c26 -1 28 -3 22 -28
-8 -33 -8 -39 0 -79 4 -23 2 -33 -10 -37 -8 -3 -18 -2 -21 4 -4 5 -11 7 -16 4
-17 -11 -9 -23 21 -28 40 -9 41 -41 1 -62 -43 -22 -46 -33 -9 -31 35 1 49 -23
28 -49 -15 -18 -60 0 -60 24 0 14 -2 14 -10 1 -5 -8 -12 -11 -17 -7 -4 4 -2
16 4 26 8 13 9 31 2 61 -6 28 -6 46 1 55 6 7 7 20 4 30 -4 9 -3 20 2 24 17 12
34 50 25 55 -5 3 -12 -5 -15 -19 -8 -30 -26 -33 -26 -5 0 11 5 20 10 20 15 0
12 30 -2 30 -7 1 -3 9 10 20 15 12 19 21 11 26 -6 3 -15 0 -20 -7 -11 -18 -16
-1 -23 69 -2 30 -7 56 -9 58 -23 24 -40 -359 -29 -656 2 -47 4 -186 3 -310 0
-124 1 -373 2 -555 1 -266 -3 -356 -17 -465 -10 -74 -21 -139 -26 -143 -4 -5
-13 38 -19 95 -7 57 -16 123 -21 148 -7 34 -6 1325 1 1385 3 31 -3 407 -8 443
l-6 44 -13 -32 c-19 -45 -46 -37 -58 18 -6 23 -14 42 -19 42 -4 0 -5 5 -1 11
13 22 257 4 348 -25z m-459 15 c-14 -12 -96 -31 -89 -20 3 5 19 13 37 18 43
12 63 13 52 2z m1528 -7 c3 -4 2 -15 -4 -25 -7 -14 -6 -19 2 -19 8 0 8 -4 1
-12 -10 -13 -14 -292 -11 -743 1 -126 1 -241 1 -255 0 -14 -1 -198 -1 -410 0
-468 0 -420 -6 -510 -6 -85 -6 -75 0 -230 8 -178 3 -464 -10 -548 -6 -38 -4
-60 6 -78 10 -20 10 -32 1 -56 -6 -17 -8 -36 -4 -42 10 -16 11 -167 1 -193 -5
-14 -4 -23 3 -25 7 -3 7 -20 -2 -58 -8 -37 -10 -108 -6 -215 6 -168 7 -225 6
-275 0 -16 0 -38 0 -47 0 -10 -2 -33 -6 -51 -4 -19 -2 -38 5 -46 8 -10 11
-112 10 -362 -2 -192 -1 -479 0 -639 2 -220 -1 -320 -13 -415 -9 -69 -19 -147
-22 -173 -9 -70 -21 -46 -34 63 -6 52 -15 127 -21 165 -10 78 -18 333 -10 340
3 3 6 39 8 80 3 60 0 77 -12 81 -16 7 -11 47 9 73 16 21 13 266 -4 286 -11 13
-11 18 -1 24 12 8 17 144 13 391 0 41 0 95 1 120 1 25 0 79 -2 120 -2 41 2
120 9 175 8 66 9 134 4 200 -5 55 -8 255 -9 445 -1 469 -2 490 -20 490 -11 0
-15 11 -15 40 0 30 3 38 14 34 11 -4 15 7 18 48 5 68 -1 98 -18 98 -16 0 -20
65 -4 75 6 3 10 1 10 -4 0 -6 5 -11 10 -11 13 0 13 40 0 60 -6 10 -10 11 -10
3 0 -7 -4 -13 -10 -13 -5 0 -10 15 -10 34 0 19 5 38 10 41 6 3 10 24 10 46 0
30 -4 39 -17 39 -17 1 -17 1 0 14 32 25 44 262 12 250 -7 -3 -16 3 -20 15 -3
12 -12 18 -20 15 -10 -4 -12 0 -8 15 8 33 19 34 43 4 l22 -28 -3 755 c-2 429
-7 769 -13 787 -13 46 4 63 64 63 25 0 50 -3 53 -6z m131 -3 c3 -4 3 -11 0
-14 -8 -7 -44 4 -44 14 0 12 37 12 44 0z m208 -38 c33 -19 33 -20 30 -89 -2
-38 -9 -140 -17 -227 -8 -86 -15 -164 -15 -172 0 -8 -6 -15 -14 -15 -10 0 -18
-38 -30 -147 -10 -82 -22 -152 -27 -158 -6 -5 -9 -2 -9 10 0 11 -7 83 -15 160
-18 168 -21 540 -4 529 8 -4 8 -1 1 13 -6 11 -10 33 -8 49 2 16 0 39 -5 51 -5
14 -4 23 4 26 19 6 73 -9 109 -30z m-532 5 c0 -18 -2 -20 -10 -8 -7 12 -12 11
-30 -5 -12 -11 -24 -19 -26 -17 -13 7 -25 0 -22 -15 5 -24 45 -27 51 -3 6 22
15 24 36 11 11 -7 9 -15 -13 -43 -14 -19 -26 -40 -26 -46 0 -7 -4 -12 -10 -12
-5 0 -10 6 -10 13 0 8 -4 7 -10 -3 -9 -13 -11 -13 -20 0 -37 54 -20 109 41
132 24 9 45 17 47 17 1 1 2 -9 2 -21z m-1463 -12 c-12 -13 -29 -34 -38 -47
-14 -20 -19 -22 -32 -11 -18 15 -30 2 -21 -23 4 -9 13 -14 20 -11 17 7 41 -29
50 -72 7 -33 -3 -41 -24 -20 -9 9 -15 8 -26 -8 -26 -34 -30 -73 -10 -95 13
-14 15 -22 7 -27 -6 -4 -13 -40 -15 -80 -5 -75 8 -112 38 -112 8 0 14 -3 14
-6 0 -12 -24 -49 -36 -57 -21 -12 -17 -45 7 -52 15 -5 19 -14 17 -33 -4 -33
-28 -42 -29 -10 -1 15 -4 9 -10 -16 -7 -31 -6 -43 6 -56 19 -21 19 -35 1 -63
-20 -31 -30 -93 -17 -101 7 -5 9 -26 5 -61 -5 -39 -2 -65 10 -94 15 -38 14
-45 -6 -42 -5 0 -8 -19 -8 -44 0 -32 4 -45 14 -45 15 0 31 -64 20 -81 -3 -6
-12 -8 -20 -5 -19 7 -18 -28 1 -44 20 -16 19 -29 -2 -53 -16 -17 -18 -42 -17
-226 1 -216 4 -382 5 -416 2 -35 2 -66 -1 -235 -3 -182 0 -274 7 -247 8 32 23
17 23 -24 0 -32 -3 -40 -15 -35 -19 7 -20 -16 -2 -44 10 -17 9 -22 -3 -30 -11
-7 -16 -34 -18 -117 -3 -117 3 -177 19 -168 13 9 11 -7 -5 -28 -17 -23 -10
-179 11 -219 13 -27 10 -71 -8 -94 -15 -18 -16 -421 -1 -435 6 -7 12 -18 12
-24 0 -5 -5 -3 -10 5 -8 12 -10 12 -11 -5 -1 -20 1 -168 2 -195 1 -16 -1 -437
-3 -665 0 -71 -1 -308 -1 -525 -1 -351 1 -399 16 -429 29 -58 20 -65 -28 -23
-66 58 -91 92 -75 102 13 8 35 244 24 262 -6 10 -17 934 -16 1411 0 185 -3
337 -6 337 -4 0 -17 3 -29 6 l-22 6 -2 -724 c-4 -1235 -4 -1221 15 -1259 16
-33 15 -32 -33 15 -47 46 -131 165 -97 137 14 -12 16 -7 18 40 1 30 3 81 5
114 3 79 3 27 -2 625 -3 289 -4 721 -4 960 1 549 -1 623 -15 757 -3 28 -2 54
3 57 5 3 7 68 5 143 -3 138 -5 294 -3 346 2 74 2 112 0 227 -2 69 -2 132 -2
140 8 101 6 403 -2 433 -7 26 -7 41 0 48 7 7 8 22 4 38 -4 14 -6 67 -4 116 5
109 5 114 1 348 -2 104 0 191 5 194 10 6 9 51 -3 74 -7 13 -7 25 -1 38 6 10 7
21 3 25 -11 11 -13 86 -2 86 6 0 10 16 10 35 0 19 -4 35 -10 35 -5 0 -10 14
-10 31 0 24 -4 30 -15 25 -12 -4 -15 4 -15 39 0 25 4 45 8 45 8 0 35 57 36 79
1 15 47 40 165 93 41 18 100 45 130 60 70 34 76 34 48 4z m321 -143 c2 -16 -2
-23 -12 -23 -10 0 -17 9 -17 23 l-2 22 -4 -22 c-5 -27 -23 -31 -23 -5 0 25 10
33 35 30 12 -2 21 -12 23 -25z m-686 -25 c-7 -7 -12 -21 -13 -32 -1 -18 -2
-17 -8 4 -9 30 -5 40 17 40 12 0 13 -3 4 -12z m1758 -13 c0 -8 6 -12 14 -9 10
4 14 -5 14 -35 1 -39 -17 -61 -19 -23 0 10 -3 12 -6 5 -2 -7 -10 -13 -17 -13
-7 0 -11 16 -10 48 3 57 2 55 14 47 6 -3 10 -13 10 -20z m-1800 -12 c0 -26 -1
-26 -17 -10 -16 16 -16 19 -3 27 20 13 20 13 20 -17z m2855 -2 l30 -17 -3
-340 c-2 -186 -5 -661 -7 -1054 -2 -393 -7 -724 -10 -736 -4 -12 -2 -47 4 -79
6 -33 7 -63 3 -67 -5 -5 -5 -32 0 -61 16 -101 17 -264 1 -286 -10 -15 -11 -26
-4 -40 14 -26 4 -153 -14 -166 -10 -9 -9 -15 5 -33 10 -12 16 -31 13 -42 -7
-27 -23 -13 -49 40 -10 22 -22 40 -26 40 -5 0 -8 8 -8 17 0 13 3 14 12 5 19
-19 28 -14 28 18 0 20 -5 30 -15 30 -11 0 -15 12 -15 46 0 36 3 45 15 41 12
-5 12 -2 3 18 -6 13 -19 26 -29 28 -20 5 -28 57 -9 57 6 0 10 12 10 28 -3 185
-3 259 -1 337 2 72 -6 343 -14 462 -4 67 -3 103 4 108 7 4 8 12 2 24 -6 10 -8
62 -5 117 10 242 12 474 4 474 -11 0 -11 178 -1 184 4 3 6 40 4 83 -10 260
-10 341 -1 371 5 18 6 40 1 50 -4 9 -8 97 -8 195 l0 178 25 -6 c14 -4 39 -14
55 -24z m-109 6 c4 -4 0 -7 -9 -7 -11 0 -17 -8 -17 -25 0 -16 -6 -25 -15 -25
-14 0 -22 49 -10 62 7 7 43 3 51 -5z m-1231 -162 l0 -155 -25 -1 c-23 -2 -24
-2 -3 -6 27 -5 38 -39 29 -86 -4 -17 -6 -39 -5 -47 0 -8 2 -55 3 -105 1 -49 5
-96 10 -104 5 -7 4 -16 -1 -20 -18 -11 -20 -36 -4 -47 12 -10 13 -15 3 -27
-19 -22 -21 -95 -4 -102 12 -4 12 -8 2 -20 -12 -14 -18 -142 -8 -161 6 -12 13
-272 13 -504 0 -170 -7 -303 -31 -569 -9 -95 -22 -57 -34 96 -6 70 -15 164
-20 208 -6 44 -14 136 -20 205 -5 69 -13 126 -18 128 -5 1 -17 9 -28 16 -16
12 -16 18 -6 40 6 15 7 26 2 26 -5 0 -9 36 -7 83 1 45 -2 314 -7 597 -5 283
-9 556 -10 607 -1 102 7 108 55 39 28 -42 34 -44 50 -13 8 16 58 77 63 77 1 0
1 -70 1 -155z m-1133 123 c6 -19 -6 -71 -17 -75 -8 -2 -12 43 -6 80 2 12 19 8
23 -5z m331 -38 c-4 -8 -8 -39 -8 -68 0 -34 -4 -52 -12 -52 -9 0 -11 15 -6 58
3 31 5 71 5 87 -1 29 0 29 14 10 8 -11 11 -26 7 -35z m-721 -15 c2 -22 0 -34
-6 -32 -14 4 -21 67 -8 67 6 0 12 -16 14 -35z m3143 -12 c51 -16 99 -43 77
-43 -9 0 -11 -49 -9 -205 2 -113 0 -208 -5 -211 -11 -7 -10 -58 2 -70 7 -7 7
-19 1 -36 -5 -13 -7 -42 -5 -64 5 -46 5 -50 3 -174 0 -52 2 -103 6 -113 4 -10
1 -27 -8 -40 -14 -21 -13 -24 1 -34 13 -7 14 -14 6 -24 -11 -15 -11 -132 1
-161 4 -9 1 -27 -6 -40 -7 -13 -12 -27 -10 -33 2 -5 5 -47 7 -92 1 -45 5 -87
9 -93 4 -6 0 -22 -9 -35 -13 -20 -13 -25 -1 -35 19 -16 19 -35 0 -54 -10 -10
-12 -17 -4 -21 6 -4 9 -26 8 -49 -2 -23 1 -47 5 -54 4 -7 4 -22 0 -35 -9 -28
-8 -106 2 -131 4 -10 2 -32 -4 -49 -6 -16 -14 -110 -17 -208 -4 -152 -3 -183
11 -204 13 -19 13 -27 2 -44 -10 -17 -10 -25 0 -41 14 -23 1 -60 -21 -60 -7 0
-4 -5 6 -11 18 -10 15 -50 -6 -76 -6 -9 -6 -13 1 -13 6 0 16 -9 22 -20 8 -15
6 -23 -11 -39 -20 -18 -20 -21 -6 -27 19 -7 23 -44 5 -62 -7 -7 -8 -15 -1 -24
15 -20 13 -56 -3 -62 -19 -7 -18 -26 2 -26 12 0 14 -9 12 -37 -2 -30 -7 -39
-25 -41 -12 -2 -20 -9 -17 -15 2 -7 6 -93 9 -192 2 -99 5 -187 6 -195 0 -8 0
-42 0 -75 -1 -33 -1 -107 -1 -165 1 -124 0 -447 0 -575 -1 -49 -1 -167 -1
-262 -1 -146 -3 -172 -16 -177 -13 -5 -15 -17 -10 -59 5 -56 1 -68 -48 -133
-16 -21 -30 -41 -32 -43 -2 -2 -6 -1 -9 2 -4 4 -1 13 5 21 8 10 9 21 3 33 -5
10 -8 36 -5 58 9 93 10 156 3 160 -9 6 -12 133 -4 147 3 5 5 93 3 196 -1 103
-1 243 0 312 1 69 1 204 0 300 -1 96 -2 193 -1 215 1 66 1 332 -1 450 0 61 -1
146 0 190 2 204 3 504 1 540 -1 22 -1 130 0 240 2 281 2 296 -3 820 -5 589 -6
666 -5 901 0 105 -2 198 -5 207 -7 18 4 16 90 -10z m-3411 -605 c-1 -343 -5
-769 -7 -948 -2 -179 -5 -354 -5 -390 0 -36 2 -182 5 -325 11 -460 9 -813 -6
-909 -8 -51 -17 -83 -21 -75 -34 65 -42 839 -10 900 7 12 5 21 -6 30 -13 10
-14 28 -9 103 4 50 6 99 6 109 -1 9 -1 28 0 42 1 37 0 188 -4 562 -3 250 -7
336 -17 348 -8 10 -9 15 -1 15 7 0 11 26 11 74 0 83 -7 116 -21 94 -6 -9 -9
-4 -9 16 0 21 4 27 15 22 13 -5 15 16 15 149 0 144 -1 155 -20 165 -29 15 -28
80 0 87 20 5 21 12 19 254 0 137 -5 252 -10 255 -5 3 -9 2 -9 -3 0 -4 -7 -17
-15 -27 -15 -20 -15 -20 -29 0 -10 14 -11 21 -3 26 6 4 15 2 19 -5 5 -8 8 -7
8 3 0 14 65 47 96 49 8 1 10 -168 8 -621z m2116 603 c0 -5 3 -22 6 -38 5 -24
2 -31 -20 -41 -16 -7 -28 -8 -31 -2 -4 6 1 13 9 16 19 7 21 45 4 62 -9 9 -7
12 10 12 12 0 22 -4 22 -9z m-50 -35 c0 -14 -4 -28 -10 -31 -6 -4 -10 7 -10
24 0 17 5 31 10 31 6 0 10 -11 10 -24z m958 -5 c3 -16 -1 -22 -10 -19 -7 3
-15 15 -16 27 -3 16 1 22 10 19 7 -3 15 -15 16 -27z m-48 -1 c0 -11 -4 -20
-10 -20 -5 0 -10 9 -10 20 0 11 5 20 10 20 6 0 10 -9 10 -20z m-2334 -58 c-3
-50 -23 -52 -28 -3 -5 52 0 65 17 51 8 -7 13 -27 11 -48z m3057 -12 c15 -7 27
-17 27 -21 0 -5 -11 -4 -25 3 -19 8 -28 8 -40 -2 -12 -10 -16 -9 -21 6 -4 11
-14 27 -23 38 -15 18 -15 18 19 3 19 -8 47 -20 63 -27z m-3383 11 c18 -34 12
-42 -27 -38 -38 4 -49 16 -39 42 8 22 53 19 66 -4z m-400 -26 c0 -8 -4 -15
-10 -15 -5 0 -10 7 -10 15 0 8 5 15 10 15 6 0 10 -7 10 -15z m-277 -252 c-5
-302 -5 -255 0 -375 2 -54 0 -98 -4 -98 -13 0 -124 125 -159 180 l-36 55 7
110 c7 115 2 196 -12 205 -21 14 121 144 184 170 12 5 23 9 23 9 1 1 0 -115
-3 -256z m2481 223 c-3 -15 1 -30 13 -42 17 -17 17 -18 0 -11 -10 4 -22 7 -27
7 -12 0 -19 64 -7 72 18 11 28 -1 21 -26z m886 -11 c0 -19 -4 -37 -10 -40 -6
-4 -10 12 -10 40 0 28 4 44 10 40 6 -3 10 -21 10 -40z m845 -36 c43 -29 126
-113 143 -145 6 -11 13 -45 16 -75 l6 -54 -13 45 c-20 67 -38 90 -69 90 -29 0
-72 47 -103 113 -11 23 -32 45 -56 59 -22 12 -39 26 -39 31 0 9 42 -14 115
-64z m-1785 31 c0 -16 -4 -30 -10 -30 -5 0 -10 14 -10 30 0 17 5 30 10 30 6 0
10 -13 10 -30z m-2176 -5 c-4 -8 -8 -15 -10 -15 -2 0 -4 7 -4 15 0 8 4 15 10
15 5 0 7 -7 4 -15z m1331 6 c-3 -6 3 -15 14 -21 16 -8 20 -20 19 -63 0 -73 -5
-87 -33 -87 -28 0 -38 25 -33 86 2 28 -1 39 -11 39 -8 0 -19 8 -25 18 -8 14
-8 20 4 27 19 13 73 13 65 1z m-939 -27 c-3 -9 -6 -23 -6 -32 -1 -16 -1 -16
-10 0 -11 18 -3 48 12 48 6 0 7 -7 4 -16z m34 -30 c0 -8 -4 -14 -10 -14 -5 0
-10 9 -10 21 0 11 5 17 10 14 6 -3 10 -13 10 -21z m669 -7 c0 -21 -1 -21 -9
-2 -12 28 -12 37 0 30 6 -3 10 -16 9 -28z m-1099 -22 c0 -19 -4 -35 -10 -35
-5 0 -10 16 -10 35 0 19 5 35 10 35 6 0 10 -16 10 -35z m3793 23 c5 -17 -3
-48 -13 -48 -12 0 -20 28 -14 45 7 18 21 20 27 3z m-1607 -51 l7 -32 9 33 c11
40 33 44 23 5 -3 -16 -12 -34 -19 -41 -17 -17 -33 2 -43 48 -8 44 13 32 23
-13z m944 3 c0 -22 -4 -40 -10 -40 -11 0 -14 63 -3 73 11 12 13 8 13 -33z
m-3100 11 c0 -11 -4 -23 -10 -26 -6 -4 -10 5 -10 19 0 14 5 26 10 26 6 0 10
-9 10 -19z m1254 3 c8 -20 -2 -54 -15 -54 -5 0 -9 16 -9 35 0 37 13 47 24 19z
m1806 -14 c0 -11 -4 -20 -10 -20 -5 0 -10 9 -10 20 0 11 5 20 10 20 6 0 10 -9
10 -20z m-1975 -55 c0 -31 -49 -28 -53 3 -3 20 0 23 25 20 20 -2 28 -8 28 -23z
m-1085 -30 c0 -19 -4 -37 -10 -40 -6 -4 -10 12 -10 40 0 28 4 44 10 40 6 -3
10 -21 10 -40z m-516 14 c-3 -6 -6 -33 -5 -60 0 -26 -4 -51 -9 -54 -13 -8 -13
81 0 106 6 10 13 19 16 19 3 0 2 -5 -2 -11z m1847 -6 c6 -35 5 -214 -1 -218
-4 -3 -5 -24 -3 -49 5 -43 5 -43 -27 -48 -32 -5 -32 -4 -27 31 3 20 1 47 -3
61 -6 20 -8 21 -9 6 -1 -15 -4 -17 -12 -9 -7 7 -9 19 -5 29 4 9 9 14 13 11 6
-7 32 21 33 35 0 4 -9 10 -20 13 -25 8 -25 30 0 62 11 14 17 29 14 34 -10 17
7 49 27 49 10 0 20 -3 20 -7z m-1371 -18 c0 -8 -4 -15 -10 -15 -5 0 -10 7 -10
15 0 8 5 15 10 15 6 0 10 -7 10 -15z m430 5 c0 -5 -7 -10 -15 -10 -8 0 -15 -7
-15 -17 0 -9 -3 -14 -6 -10 -10 10 7 47 22 47 8 0 14 -4 14 -10z m3660 -29 c0
-28 -20 -37 -27 -12 -7 28 -23 27 -23 -1 0 -16 -3 -19 -11 -11 -19 19 -2 43
31 43 23 0 30 -4 30 -19z m-2973 -37 c3 -8 1 -20 -6 -27 -14 -14 -47 15 -37
32 10 16 36 13 43 -5z m-683 -9 c3 -8 1 -15 -4 -15 -6 0 -10 7 -10 15 0 8 2
15 4 15 2 0 6 -7 10 -15z m354 -31 c-5 -28 -28 -29 -28 -1 0 13 3 27 7 30 10
11 25 -9 21 -29z m2312 21 c0 -8 -4 -15 -10 -15 -5 0 -10 7 -10 15 0 8 5 15
10 15 6 0 10 -7 10 -15z m50 1 c0 -8 -4 -18 -10 -21 -5 -3 -10 3 -10 14 0 12
5 21 10 21 6 0 10 -6 10 -14z m-3163 -28 c-3 -7 -5 -2 -5 12 0 14 2 19 5 13 2
-7 2 -19 0 -25z m53 11 c0 -25 -17 -59 -30 -59 -6 0 -10 7 -10 15 0 8 5 15 10
15 6 0 10 11 10 25 0 14 5 25 10 25 6 0 10 -9 10 -21z m2170 -20 c0 -28 -4
-39 -12 -37 -24 8 -22 78 2 78 5 0 10 -18 10 -41z m1849 -36 c1 -7 -3 -13 -9
-13 -5 0 -10 15 -9 33 0 27 2 29 9 12 5 -11 9 -26 9 -32z m-2959 -28 c0 -14
-4 -25 -10 -25 -5 0 -10 11 -10 25 0 14 5 25 10 25 6 0 10 -11 10 -25z m2700
10 c0 -8 -9 -15 -20 -15 -11 0 -20 7 -20 15 0 8 9 15 20 15 11 0 20 -7 20 -15z
m-3796 -22 c5 -18 2 -31 -8 -42 -15 -14 -16 -11 -16 27 0 47 14 56 24 15z
m3126 -11 c0 -15 -5 -34 -10 -42 -7 -11 -10 -2 -10 33 0 30 4 46 10 42 6 -3
10 -18 10 -33z m-2680 10 c0 -39 -61 -55 -68 -18 -3 11 0 16 7 12 6 -4 19 -2
28 3 22 13 33 14 33 3z m1750 -52 c0 -16 -4 -30 -10 -30 -5 0 -10 14 -10 30 0
17 5 30 10 30 6 0 10 -13 10 -30z m1870 -7 c0 -10 -8 -27 -17 -38 -14 -18 -15
-18 -9 -2 3 10 6 27 6 38 0 10 5 19 10 19 6 0 10 -8 10 -17z m-3310 -9 c0 -8
-4 -12 -10 -9 -5 3 -10 10 -10 16 0 5 5 9 10 9 6 0 10 -7 10 -16z m1480 6 c0
-5 -5 -10 -11 -10 -5 0 -7 5 -4 10 3 6 8 10 11 10 2 0 4 -4 4 -10z m1537 -22
c-3 -7 -5 -2 -5 12 0 14 2 19 5 13 2 -7 2 -19 0 -25z m-2649 -10 c-6 -18 -28
-21 -28 -4 0 9 7 16 16 16 9 0 14 -5 12 -12z m-1118 -23 c0 -8 -4 -15 -10 -15
-5 0 -10 7 -10 15 0 8 5 15 10 15 6 0 10 -7 10 -15z m750 0 c0 -8 -4 -15 -10
-15 -5 0 -10 7 -10 15 0 8 5 15 10 15 6 0 10 -7 10 -15z m2362 -37 c-9 -9 -12
-4 -11 23 0 32 1 33 11 11 8 -17 8 -26 0 -34z m-1748 -53 c6 -44 5 -74 -1 -84
-7 -12 -6 -20 4 -29 8 -9 10 -19 5 -29 -5 -8 -7 -37 -4 -64 3 -35 1 -49 -8
-49 -9 0 -10 -3 -1 -14 8 -9 9 -36 5 -82 -4 -38 -6 -80 -5 -94 1 -29 3 -454 2
-486 -1 -27 -23 -37 -46 -21 -13 10 -14 18 -6 40 9 22 7 35 -4 58 -9 16 -13
34 -10 39 4 6 8 65 10 133 2 67 4 129 5 137 2 39 -8 169 -14 178 -3 6 -3 18 0
27 4 9 1 20 -6 25 -10 6 -9 22 3 76 17 79 12 195 -9 207 -17 10 -8 34 15 40
11 2 21 18 24 37 11 52 31 30 41 -45z m856 20 c0 -14 -4 -25 -10 -25 -5 0 -10
7 -10 16 0 14 -3 14 -15 4 -12 -10 -15 -10 -15 2 0 20 10 28 32 28 13 0 18 -7
18 -25z m-1133 -27 c-3 -8 -6 -5 -6 6 -1 11 2 17 5 13 3 -3 4 -12 1 -19z
m-320 -10 c-3 -8 -6 -5 -6 6 -1 11 2 17 5 13 3 -3 4 -12 1 -19z m-12 -38 c-3
-5 -10 -10 -16 -10 -5 0 -9 5 -9 10 0 6 7 10 16 10 8 0 12 -4 9 -10z m1455
-10 c17 32 29 8 22 -45 -4 -30 -7 -35 -12 -21 -7 22 -40 31 -40 11 0 -8 -4
-17 -10 -20 -6 -4 -10 14 -10 47 l0 53 19 -24 19 -24 12 23z m-2210 -9 c0 -11
-4 -23 -10 -26 -6 -4 -10 5 -10 19 0 14 5 26 10 26 6 0 10 -9 10 -19z m-490
-33 c0 -23 -3 -29 -9 -19 -5 7 -7 21 -6 30 5 22 4 21 10 21 3 0 5 -15 5 -32z
m228 8 c10 -10 14 -62 14 -222 1 -235 0 -316 -2 -389 0 -27 -1 -63 -1 -80 -1
-16 1 -66 3 -110 2 -44 2 -120 -2 -170 -3 -49 -3 -108 1 -130 4 -22 5 -44 2
-48 -11 -18 -13 -110 -2 -123 7 -9 7 -19 0 -32 -6 -11 -8 -22 -5 -25 6 -6 6
-72 0 -214 -3 -56 -1 -105 3 -107 5 -3 5 -23 1 -44 -3 -21 -3 -65 0 -97 4 -34
3 -65 -2 -72 -10 -12 -11 -278 -2 -368 8 -80 10 -346 3 -395 -4 -25 -3 -50 2
-56 6 -7 5 -30 -1 -60 -7 -28 -9 -77 -5 -114 4 -36 8 -99 9 -141 2 -41 9 -86
15 -100 l12 -24 -20 25 c-20 24 -121 212 -121 225 0 3 5 3 10 0 6 -4 10 5 10
19 0 16 -6 26 -15 26 -9 0 -12 -6 -9 -15 4 -8 3 -15 0 -15 -3 0 -22 32 -41 72
-33 68 -45 99 -26 69 13 -20 1 303 -20 539 -5 63 -12 151 -14 195 -2 44 -5 95
-8 113 -3 22 1 36 11 41 14 8 14 12 -2 36 -15 22 -16 32 -7 52 17 37 13 70
-11 93 -12 11 -19 23 -15 26 4 4 15 0 26 -10 18 -16 19 -16 23 6 6 33 -3 119
-12 113 -8 -5 -5 23 11 97 7 29 7 53 1 63 -5 11 -5 33 0 59 17 71 18 118 3
112 -7 -2 -16 2 -19 10 -8 20 5 75 15 68 17 -10 9 12 -11 29 -11 9 -20 21 -20
26 0 5 9 13 20 16 20 6 30 55 11 55 -12 0 -11 54 2 61 15 10 -1 79 -17 73 -9
-3 -18 6 -24 25 -6 17 -16 31 -21 31 -6 0 -11 4 -11 9 0 6 9 9 20 8 14 -1 20
-8 20 -24 0 -26 6 -29 25 -9 14 13 15 139 1 153 -3 3 -6 24 -6 47 0 48 17 38
23 -14 7 -59 5 57 -2 130 -4 48 -10 65 -21 65 -8 0 -15 6 -14 13 4 46 4 47 13
33 7 -11 11 -9 21 9 9 16 9 25 1 33 -13 13 -15 94 -2 102 6 3 8 59 5 132 l-4
126 83 -7 c46 -4 88 -13 95 -20z m3382 9 c0 -8 -4 -15 -10 -15 -5 0 -10 7 -10
15 0 8 5 15 10 15 6 0 10 -7 10 -15z m-3090 -4 c0 -6 -4 -13 -10 -16 -5 -3
-10 1 -10 9 0 9 5 16 10 16 6 0 10 -4 10 -9z m4015 -1 c-3 -5 -10 -10 -16 -10
-5 0 -9 5 -9 10 0 6 7 10 16 10 8 0 12 -4 9 -10z m200 0 c18 -7 18 -8 -7 -15
-28 -7 -48 -1 -48 16 0 11 27 11 55 -1z m-4910 -19 c-12 -12 -65 -25 -65 -17
0 8 39 24 60 25 9 1 10 -2 5 -8z m5053 -25 c62 -32 71 -52 68 -157 -1 -57 -7
-103 -13 -111 -10 -11 -10 -23 0 -53 9 -30 9 -39 -1 -43 -14 -4 -17 -42 -3
-42 17 0 20 -71 4 -105 -15 -31 -15 -37 -1 -66 12 -24 14 -39 6 -61 -7 -20 -7
-37 2 -58 9 -23 10 -37 1 -57 -15 -39 -14 -188 3 -271 3 -15 -1 -38 -8 -51
-10 -19 -11 -31 -3 -48 8 -18 7 -33 -2 -59 -9 -26 -10 -43 -1 -68 7 -22 7 -42
1 -58 -6 -17 -6 -40 1 -68 8 -30 8 -48 1 -59 -11 -17 -10 -79 3 -236 4 -54 3
-84 -4 -89 -12 -7 -5 -74 10 -93 5 -6 5 -14 0 -17 -5 -3 -9 -20 -10 -38 -2
-62 -59 -271 -87 -320 -8 -14 -14 464 -18 1622 -1 341 5 620 14 620 5 0 22 -6
37 -14z m-4411 -53 c-3 -10 -5 -4 -5 12 0 17 2 24 5 18 2 -7 2 -21 0 -30z
m3813 28 c0 -6 -4 -13 -10 -16 -5 -3 -10 1 -10 9 0 9 5 16 10 16 6 0 10 -4 10
-9z m270 -11 c0 -5 -6 -10 -14 -10 -8 0 -18 5 -21 10 -3 6 3 10 14 10 12 0 21
-4 21 -10z m-1840 -40 c0 -22 -4 -40 -10 -40 -11 0 -14 63 -3 73 11 12 13 8
13 -33z m-1105 5 c0 -14 -8 -21 -27 -23 -22 -3 -28 1 -28 16 0 24 6 29 33 28
15 -1 22 -7 22 -21z m-1960 -19 c-16 -20 -27 -50 -28 -73 -2 -26 -8 -39 -20
-41 -20 -4 -21 7 -5 45 12 29 66 103 74 103 3 0 -7 -15 -21 -34z m3977 20 c3
-5 4 -15 1 -23 -4 -10 -9 -11 -19 -2 -10 8 -14 8 -14 0 0 -6 -7 -11 -15 -11
-15 0 -21 31 -9 43 9 9 48 4 56 -7z m-3840 -38 c-9 -9 -12 -7 -12 12 0 19 3
21 12 12 9 -9 9 -15 0 -24z m5198 12 c0 -5 -4 -10 -10 -10 -5 0 -10 5 -10 10
0 6 5 10 10 10 6 0 10 -4 10 -10z m-713 -42 c-3 -8 -6 -5 -6 6 -1 11 2 17 5
13 3 -3 4 -12 1 -19z m253 -8 c0 -5 -4 -10 -10 -10 -5 0 -10 5 -10 10 0 6 5
10 10 10 6 0 10 -4 10 -10z m-2940 -40 c0 -33 -15 -41 -22 -12 -6 21 1 42 13
42 5 0 9 -13 9 -30z m-1753 -12 c-3 -8 -6 -5 -6 6 -1 11 2 17 5 13 3 -3 4 -12
1 -19z m3777 16 c10 -4 16 -18 16 -36 0 -26 -2 -29 -15 -18 -12 10 -15 10 -15
-1 0 -25 -20 13 -20 39 0 23 7 26 34 16z m-3612 -19 c0 -5 -5 -11 -11 -13 -6
-2 -11 4 -11 13 0 9 5 15 11 13 6 -2 11 -8 11 -13z m2696 -2 c-4 -22 -22 -20
-26 1 -2 10 3 16 13 16 10 0 15 -7 13 -17z m1587 -23 c-3 -5 -13 -10 -21 -10
-8 0 -14 5 -14 10 0 6 9 10 21 10 11 0 17 -4 14 -10z m-4660 -49 c6 -21 -3
-51 -16 -51 -5 0 -9 16 -9 35 0 19 -4 35 -10 35 -5 0 -10 5 -10 10 0 17 38 -7
45 -29z m415 30 c0 -6 -4 -13 -10 -16 -5 -3 -10 1 -10 9 0 9 5 16 10 16 6 0
10 -4 10 -9z m467 -38 c-3 -10 -5 -2 -5 17 0 19 2 27 5 18 2 -10 2 -26 0 -35z
m4050 0 c-4 -17 -4 -17 -12 0 -4 9 -4 25 0 35 8 16 8 16 12 0 3 -10 3 -26 0
-35z m-4552 7 c3 -5 -1 -10 -9 -10 -9 0 -16 5 -16 10 0 6 4 10 9 10 6 0 13 -4
16 -10z m1603 -17 c-2 -10 -10 -18 -18 -18 -8 0 -16 8 -18 18 -2 12 3 17 18
17 15 0 20 -5 18 -17z m3142 -2 c14 -28 13 -46 -8 -71 -27 -34 -52 -17 -52 34
0 24 3 46 7 49 13 14 43 7 53 -12z m-1146 -42 l-8 -24 -6 25 c-8 30 -2 46 12
32 6 -6 7 -20 2 -33z m-3804 21 c0 -5 -4 -10 -10 -10 -5 0 -10 5 -10 10 0 6 5
10 10 10 6 0 10 -4 10 -10z m4467 -12 c-3 -8 -6 -5 -6 6 -1 11 2 17 5 13 3 -3
4 -12 1 -19z m798 2 c3 -5 1 -10 -4 -10 -6 0 -11 5 -11 10 0 6 2 10 4 10 3 0
8 -4 11 -10z m2 -62 c-3 -8 -6 -5 -6 6 -1 11 2 17 5 13 3 -3 4 -12 1 -19z
m-4560 -10 c-3 -8 -6 -5 -6 6 -1 11 2 17 5 13 3 -3 4 -12 1 -19z m420 9 c-5
-15 -49 -16 -54 -1 -2 6 10 11 27 12 20 0 30 -4 27 -11z m-1341 -22 c7 -28 0
-55 -16 -55 -5 0 -10 18 -10 40 0 44 16 54 26 15z m414 21 c0 -3 -4 -8 -10
-11 -5 -3 -10 -1 -10 4 0 6 5 11 10 11 6 0 10 -2 10 -4z m1620 -11 c0 -8 -4
-15 -10 -15 -5 0 -10 7 -10 15 0 8 5 15 10 15 6 0 10 -7 10 -15z m1080 -15 c0
-5 -4 -10 -10 -10 -5 0 -10 5 -10 10 0 6 5 10 10 10 6 0 10 -4 10 -10z m2047
-1 c12 -12 6 -54 -11 -69 -18 -14 -57 24 -49 48 12 31 40 41 60 21z m-1947 -8
c0 -6 -4 -13 -10 -16 -5 -3 -10 1 -10 9 0 9 5 16 10 16 6 0 10 -4 10 -9z m40
-16 c0 -14 -4 -25 -10 -25 -5 0 -10 11 -10 25 0 14 5 25 10 25 6 0 10 -11 10
-25z m793 13 c5 -17 -3 -38 -14 -38 -5 0 -9 10 -10 23 l-1 22 -6 -22 c-5 -16
-11 -20 -21 -14 -8 5 -11 16 -8 25 7 19 53 22 60 4z m-3103 -64 c0 -13 -4 -24
-9 -24 -11 0 -19 30 -14 48 7 20 23 3 23 -24z m4040 20 c0 -13 -22 -14 -58 -5
-2 1 -1 4 1 9 9 14 57 10 57 -4z m-280 -4 c0 -5 -4 -10 -10 -10 -5 0 -10 5
-10 10 0 6 5 10 10 10 6 0 10 -4 10 -10z m-3068 -42 c-9 -9 -12 -7 -12 12 0
19 3 21 12 12 9 -9 9 -15 0 -24z m388 2 c0 -35 -10 -38 -34 -11 -17 18 -17 20
1 30 28 16 33 13 33 -19z m1580 20 c0 -5 -5 -10 -11 -10 -5 0 -7 5 -4 10 3 6
8 10 11 10 2 0 4 -4 4 -10z m-3180 -15 c0 -8 -4 -15 -9 -15 -13 0 -22 16 -14
24 11 11 23 6 23 -9z m-425 -6 c9 -14 -3 -59 -15 -59 -6 0 -10 16 -10 35 0 34
12 46 25 24z m2709 -28 c-4 -9 -8 -36 -10 -61 -4 -67 -7 -80 -15 -80 -11 0
-17 153 -6 168 14 17 40 -6 31 -27z m-1037 7 c-3 -8 -6 -5 -6 6 -1 11 2 17 5
13 3 -3 4 -12 1 -19z m1558 7 c6 0 12 -11 13 -25 3 -19 1 -22 -10 -13 -7 6
-17 11 -23 10 -5 -1 -12 9 -13 22 -3 17 0 21 10 15 7 -5 18 -9 23 -9z m1933
-27 c3 -36 2 -38 -27 -38 -27 0 -30 3 -29 33 1 42 6 49 31 45 17 -2 23 -11 25
-40z m-5128 3 c0 -6 -4 -13 -10 -16 -5 -3 -10 1 -10 9 0 9 5 16 10 16 6 0 10
-4 10 -9z m4000 -22 c0 -10 -4 -19 -10 -19 -5 0 -10 12 -10 26 0 14 4 23 10
19 6 -3 10 -15 10 -26z m-3130 -8 c0 -11 -4 -23 -10 -26 -6 -4 -10 5 -10 19 0
14 5 26 10 26 6 0 10 -9 10 -19z m40 -7 c0 -14 -4 -23 -10 -19 -5 3 -10 15
-10 26 0 10 5 19 10 19 6 0 10 -12 10 -26z m357 4 c-3 -8 -6 -5 -6 6 -1 11 2
17 5 13 3 -3 4 -12 1 -19z m2280 -50 c-3 -8 -6 -5 -6 6 -1 11 2 17 5 13 3 -3
4 -12 1 -19z m-3350 -20 c-3 -7 -5 -2 -5 12 0 14 2 19 5 13 2 -7 2 -19 0 -25z
m3799 7 c4 -14 3 -29 0 -33 -9 -8 -26 18 -26 41 0 26 19 20 26 -8z m1140 1 c3
-14 1 -32 -4 -42 -7 -12 -6 -25 0 -40 8 -18 6 -28 -10 -49 -21 -26 -21 -26 -1
-46 22 -22 24 -56 4 -83 -15 -20 -47 -15 -44 6 1 7 -2 21 -6 32 -5 11 -4 26 3
37 7 11 8 20 2 24 -14 8 -13 92 1 101 8 4 8 9 0 17 -6 6 -11 24 -11 39 0 24 4
28 30 28 23 0 31 -5 36 -24z m-4719 -38 c-2 -13 -4 -5 -4 17 -1 22 1 32 4 23
2 -10 2 -28 0 -40z m-30 20 c-3 -8 -6 -5 -6 6 -1 11 2 17 5 13 3 -3 4 -12 1
-19z m2713 -8 c0 -11 -4 -20 -10 -20 -5 0 -10 9 -10 20 0 11 5 20 10 20 6 0
10 -9 10 -20z m-2190 -30 c0 -10 -4 -22 -10 -25 -6 -4 -10 7 -10 25 0 18 4 29
10 25 6 -3 10 -15 10 -25z m4007 8 c-3 -8 -6 -5 -6 6 -1 11 2 17 5 13 3 -3 4
-12 1 -19z m-4961 -114 c3 -60 10 -112 15 -115 6 -3 9 -34 7 -69 -2 -44 1 -65
10 -68 16 -5 15 -27 -3 -42 -20 -16 -23 -5 -29 95 -2 44 -8 134 -12 200 -4 66
-4 117 0 114 4 -4 10 -56 12 -115z m44 89 c0 -5 -9 -19 -20 -33 -16 -20 -20
-22 -20 -7 0 9 5 17 10 17 6 0 10 7 10 15 0 8 5 15 10 15 6 0 10 -3 10 -7z
m1988 -5 c-3 -7 -11 -13 -18 -13 -7 0 -15 6 -17 13 -3 7 4 12 17 12 13 0 20
-5 18 -12z m2022 -65 c0 -23 -4 -45 -10 -48 -6 -4 -10 7 -10 27 -1 31 -1 32
-15 14 -24 -32 -26 -13 -4 34 24 50 39 41 39 -27z m-1350 31 c0 -16 -16 -19
-25 -4 -8 13 4 32 16 25 5 -4 9 -13 9 -21z m-2493 -16 c-3 -8 -6 -5 -6 6 -1
11 2 17 5 13 3 -3 4 -12 1 -19z m208 -27 c3 -5 1 -12 -5 -16 -5 -3 -10 1 -10
9 0 18 6 21 15 7z m-375 -61 c0 -10 -4 -22 -10 -25 -6 -4 -10 7 -10 25 0 18 4
29 10 25 6 -3 10 -15 10 -25z m2237 0 c12 0 14 -6 8 -27 -9 -38 -12 -134 -3
-139 7 -5 3 -72 -7 -120 -4 -19 -3 -34 4 -38 18 -12 13 -54 -8 -66 -44 -23
-52 -14 -49 55 2 48 -1 68 -11 74 -12 8 -12 12 3 26 19 19 13 52 -13 73 -14
12 -13 15 12 34 24 17 27 25 21 52 -9 42 -15 51 -25 35 -7 -11 -9 -10 -9 4 0
24 54 71 58 51 2 -8 10 -14 19 -14z m2705 -5 c-12 -22 -27 -2 -18 22 5 12 10
13 17 6 7 -7 8 -17 1 -28z m-935 -17 c-3 -8 -6 -5 -6 6 -1 11 2 17 5 13 3 -3
4 -12 1 -19z m-3620 -10 c-3 -8 -6 -5 -6 6 -1 11 2 17 5 13 3 -3 4 -12 1 -19z
m-212 -7 c3 -5 1 -12 -5 -16 -5 -3 -10 1 -10 9 0 18 6 21 15 7z m3802 -33 c-3
-7 -5 -2 -5 12 0 14 2 19 5 13 2 -7 2 -19 0 -25z m-2007 -8 c0 -11 -4 -20 -10
-20 -5 0 -10 9 -10 20 0 11 5 20 10 20 6 0 10 -9 10 -20z m2690 -20 c0 -5 -4
-10 -10 -10 -5 0 -10 5 -10 10 0 6 5 10 10 10 6 0 10 -4 10 -10z m-2023 -22
c-3 -8 -6 -5 -6 6 -1 11 2 17 5 13 3 -3 4 -12 1 -19z m583 -4 c0 -8 -4 -14
-10 -14 -5 0 -10 9 -10 21 0 11 5 17 10 14 6 -3 10 -13 10 -21z m1905 -21 c-4
-16 -7 -38 -7 -50 3 -36 -36 -31 -40 5 -5 38 12 72 35 72 16 0 18 -4 12 -27z
m-4958 -5 c-3 -8 -6 -5 -6 6 -1 11 2 17 5 13 3 -3 4 -12 1 -19z m3837 -11 c8
-13 6 -20 -9 -31 -17 -13 -21 -13 -28 0 -10 18 1 56 16 51 6 -2 15 -11 21 -20z
m-2394 -7 c0 -11 5 -20 10 -20 17 0 11 -14 -10 -28 -19 -11 -20 -10 -20 28 0
22 5 40 10 40 6 0 10 -9 10 -20z m-335 -10 c3 -5 -1 -10 -10 -10 -9 0 -13 5
-10 10 3 6 8 10 10 10 2 0 7 -4 10 -10z m3382 -32 c-3 -8 -6 -5 -6 6 -1 11 2
17 5 13 3 -3 4 -12 1 -19z m793 2 c0 -5 -4 -10 -10 -10 -5 0 -10 5 -10 10 0 6
5 10 10 10 6 0 10 -4 10 -10z m-3460 -40 c0 -16 -4 -30 -10 -30 -5 0 -10 14
-10 30 0 17 5 30 10 30 6 0 10 -13 10 -30z m3135 -12 c15 -37 18 -108 4 -108
-5 0 -9 -16 -9 -36 0 -28 -3 -35 -17 -32 -12 2 -18 13 -18 32 -1 16 -6 31 -13
34 -23 7 -12 33 18 38 16 4 28 10 25 14 -2 4 -17 5 -31 2 -24 -4 -26 -2 -20
14 4 10 10 31 13 47 7 37 31 34 48 -5z m-4735 0 c0 -16 -3 -19 -11 -11 -6 6
-8 16 -5 22 11 17 16 13 16 -11z m4972 -23 c-6 -34 -12 -32 -12 6 0 16 4 28 9
25 4 -3 6 -17 3 -31z m-1386 -11 c-3 -8 -10 -13 -16 -9 -6 4 -5 13 3 26 13 21
23 8 13 -17z m-2356 -16 c-1 -28 -2 -30 -11 -15 -6 10 -8 25 -5 33 9 24 16 16
16 -18z m2387 10 c-3 -8 -6 -5 -6 6 -1 11 2 17 5 13 3 -3 4 -12 1 -19z m903
-14 c0 -8 -5 -12 -10 -9 -6 4 -8 11 -5 16 9 14 15 11 15 -7z m40 6 c0 -5 -4
-10 -10 -10 -5 0 -10 5 -10 10 0 6 5 10 10 10 6 0 10 -4 10 -10z m-4951 -38
c0 -24 -1 -25 -9 -7 -12 28 -12 47 0 40 6 -3 10 -18 9 -33z m381 18 c0 -5 -4
-10 -10 -10 -5 0 -10 5 -10 10 0 6 5 10 10 10 6 0 10 -4 10 -10z m496 -17
c-10 -10 -19 5 -10 18 6 11 8 11 12 0 2 -7 1 -15 -2 -18z m-676 -16 c0 -5 -4
-5 -10 -2 -5 3 -10 14 -10 23 0 15 2 15 10 2 5 -8 10 -19 10 -23z m3020 -12
c0 -14 -4 -25 -10 -25 -5 0 -10 11 -10 25 0 14 5 25 10 25 6 0 10 -11 10 -25z
m-3040 -4 c0 -6 -4 -13 -10 -16 -5 -3 -10 1 -10 9 0 9 5 16 10 16 6 0 10 -4
10 -9z m3830 -36 c0 -19 -4 -35 -10 -35 -11 0 -14 53 -3 63 11 12 13 8 13 -28z
m-1766 -19 c9 -14 7 -21 -9 -34 -12 -9 -24 -25 -28 -34 -5 -14 -1 -18 18 -18
24 0 25 -2 22 -71 -1 -55 -6 -74 -19 -83 -9 -5 -20 -8 -23 -5 -12 13 -23 109
-20 172 5 90 30 121 59 73z m2673 2 c-3 -8 -6 -5 -6 6 -1 11 2 17 5 13 3 -3 4
-12 1 -19z m-935 -40 c-9 -9 -12 -7 -12 12 0 19 3 21 12 12 9 -9 9 -15 0 -24z
m-3805 -20 c-3 -8 -6 -5 -6 6 -1 11 2 17 5 13 3 -3 4 -12 1 -19z m4955 -1 c7
-35 -1 -47 -33 -47 -25 0 -29 4 -29 28 0 34 6 42 36 42 15 0 23 -7 26 -23z
m-4747 3 c3 -5 1 -10 -4 -10 -6 0 -11 5 -11 10 0 6 2 10 4 10 3 0 8 -4 11 -10z
m2815 -10 c0 -5 -2 -10 -4 -10 -3 0 -8 5 -11 10 -3 6 -1 10 4 10 6 0 11 -4 11
-10z m1457 4 c-3 -3 -12 -4 -19 -1 -8 3 -5 6 6 6 11 1 17 -2 13 -5z m-650 -26
c-3 -8 -6 -5 -6 6 -1 11 2 17 5 13 3 -3 4 -12 1 -19z m-937 -34 c0 -8 -5 -12
-10 -9 -6 4 -8 11 -5 16 9 14 15 11 15 -7z m-2680 -4 c0 -5 -7 -10 -15 -10 -8
0 -15 5 -15 10 0 6 7 10 15 10 8 0 15 -4 15 -10z m1600 -4 c0 -8 -11 -13 -25
-13 -37 0 -34 21 5 24 11 1 20 -4 20 -11z m3131 4 c25 -14 27 -75 2 -88 -41
-21 -75 32 -48 74 18 27 19 28 46 14z m-5071 -39 c0 -21 -13 -4 -17 22 -2 17
-1 19 7 7 5 -8 10 -21 10 -29z m135 9 c0 -7 -6 -15 -12 -17 -8 -3 -13 4 -13
17 0 13 5 20 13 18 6 -3 12 -11 12 -18z m3025 -20 c0 -5 -4 -10 -10 -10 -5 0
-10 5 -10 10 0 6 5 10 10 10 6 0 10 -4 10 -10z m-3150 -20 c0 -5 -2 -10 -4
-10 -3 0 -8 5 -11 10 -3 6 -1 10 4 10 6 0 11 -4 11 -10z m327 -22 c-3 -8 -6
-5 -6 6 -1 11 2 17 5 13 3 -3 4 -12 1 -19z m3619 -15 c-11 -11 -19 6 -11 24 8
17 8 17 12 0 3 -10 2 -21 -1 -24z m-1821 17 c3 -5 1 -10 -4 -10 -6 0 -11 5
-11 10 0 6 2 10 4 10 3 0 8 -4 11 -10z m1782 -12 c-3 -8 -6 -5 -6 6 -1 11 2
17 5 13 3 -3 4 -12 1 -19z m-3787 -23 c0 -13 -4 -27 -10 -30 -6 -4 -10 8 -10
30 0 22 4 34 10 30 6 -3 10 -17 10 -30z m37 -2 c-3 -10 -5 -4 -5 12 0 17 2 24
5 18 2 -7 2 -21 0 -30z m2853 -8 c0 -19 -4 -35 -10 -35 -5 0 -10 16 -10 35 0
19 5 35 10 35 6 0 10 -16 10 -35z m-2987 -40 l6 -30 -14 30 c-8 17 -14 39 -14
50 l0 20 8 -20 c4 -11 11 -33 14 -50z m5044 39 c3 -9 0 -20 -8 -25 -10 -6 -10
-9 -1 -9 6 0 12 -7 12 -15 0 -22 -47 -19 -59 3 -7 14 -6 25 5 40 18 26 42 29
51 6z m-2890 -20 c16 -25 16 -27 -8 -45 -13 -10 -27 -19 -31 -19 -12 0 -19 37
-12 64 8 33 29 33 51 0z m2410 -36 c-3 -8 -6 -5 -6 6 -1 11 2 17 5 13 3 -3 4
-12 1 -19z m290 -15 c-3 -10 -5 -4 -5 12 0 17 2 24 5 18 2 -7 2 -21 0 -30z
m-927 -29 c0 -16 -3 -15 -21 4 -11 12 -17 27 -14 32 9 14 35 -14 35 -36z
m-2393 14 c-3 -8 -6 -5 -6 6 -1 11 2 17 5 13 3 -3 4 -12 1 -19z m-1522 2 c3
-5 1 -10 -4 -10 -6 0 -11 5 -11 10 0 6 2 10 4 10 3 0 8 -4 11 -10z m3119 -25
c7 -27 1 -45 -15 -45 -5 0 -9 16 -9 35 0 41 15 47 24 10z m1880 6 c3 -5 15 -7
26 -4 27 7 26 -15 -2 -57 -25 -36 -44 -41 -41 -9 2 11 -2 29 -7 40 -15 28 8
56 24 30z m-4984 -31 c0 -5 -4 -10 -10 -10 -5 0 -10 5 -10 10 0 6 5 10 10 10
6 0 10 -4 10 -10z m2105 -33 c0 -15 -4 -28 -9 -29 -14 -5 -30 28 -23 46 10 26
32 14 32 -17z m-2094 -13 c5 -15 8 -29 5 -31 -2 -2 -8 10 -14 26 -13 38 -5 41
9 5z m2979 -18 c0 -14 -4 -28 -10 -31 -6 -4 -10 7 -10 24 0 17 5 31 10 31 6 0
10 -11 10 -24z m883 -19 c-9 -16 -24 9 -17 28 7 18 8 18 14 -1 4 -10 5 -23 3
-27z m687 13 c0 -5 -4 -10 -10 -10 -5 0 -10 5 -10 10 0 6 5 10 10 10 6 0 10
-4 10 -10z m-1450 -26 c0 -14 -4 -23 -10 -19 -5 3 -10 15 -10 26 0 10 5 19 10
19 6 0 10 -12 10 -26z m1899 12 c6 -7 11 -29 10 -47 0 -19 2 -51 4 -72 7 -48
-19 -79 -50 -59 -16 10 -20 77 -5 95 9 10 10 17 2 22 -14 8 -13 48 2 63 15 15
23 15 37 -2z m-4979 -32 c0 -17 17 -19 23 -1 3 8 7 6 12 -7 5 -11 3 -27 -3
-37 -16 -24 -15 -29 3 -29 18 0 17 1 19 -69 1 -33 7 -56 14 -59 7 -2 12 -20
12 -40 -1 -30 -2 -34 -11 -19 -6 9 -12 25 -14 35 -2 9 -11 41 -19 70 -8 28
-11 52 -8 52 4 0 1 4 -6 8 -7 5 -14 18 -16 29 -3 11 -9 37 -14 57 -6 21 -7 34
-1 31 5 -4 9 -13 9 -21z m2080 16 c0 -5 -2 -10 -4 -10 -3 0 -8 5 -11 10 -3 6
-1 10 4 10 6 0 11 -4 11 -10z m-2010 -30 c0 -16 -4 -30 -10 -30 -5 0 -10 14
-10 30 0 17 5 30 10 30 6 0 10 -13 10 -30z m4700 -6 c0 -8 -5 -12 -10 -9 -6 4
-8 11 -5 16 9 14 15 11 15 -7z m40 -4 c0 -5 -4 -10 -10 -10 -5 0 -10 5 -10 10
0 6 5 10 10 10 6 0 10 -4 10 -10z m-2960 -35 c0 -8 -4 -17 -10 -20 -6 -4 -10
5 -10 20 0 15 4 24 10 20 6 -3 10 -12 10 -20z m1216 -22 c-11 -11 -19 6 -11
24 8 17 8 17 12 0 3 -10 2 -21 -1 -24z m-2335 -26 c-8 -8 -11 -7 -11 4 0 20
13 34 18 19 3 -7 -1 -17 -7 -23z m3219 -12 c0 -19 -4 -35 -10 -35 -5 0 -10 16
-10 35 0 19 5 35 10 35 6 0 10 -16 10 -35z m-1857 5 c21 -25 22 -44 1 -61 -14
-12 -14 -14 0 -25 18 -13 20 -53 4 -127 -7 -31 -7 -52 0 -60 11 -14 9 -304 -2
-329 -5 -10 -5 -26 -1 -35 5 -10 10 -38 12 -62 3 -35 -1 -47 -17 -58 -11 -8
-18 -19 -15 -24 4 -5 0 -9 -7 -10 -7 -1 -2 -4 12 -8 28 -8 39 -43 20 -66 -7
-9 -8 -15 -1 -19 6 -4 10 -19 10 -34 -1 -15 0 -137 1 -272 1 -285 -16 -530
-39 -530 -7 0 -9 18 -10 100 0 14 -5 68 -11 120 -6 52 -11 148 -11 212 0 65
-4 120 -9 123 -6 3 -10 12 -10 18 0 7 4 6 10 -3 7 -10 10 8 11 60 2 157 7 214
18 218 8 3 8 9 0 23 -8 16 -13 285 -9 544 1 28 1 108 1 180 1 156 5 168 42
125z m2689 -22 c-9 -9 -12 -7 -12 12 0 19 3 21 12 12 9 -9 9 -15 0 -24z
m-2755 0 c-3 -8 -6 -5 -6 6 -1 11 2 17 5 13 3 -3 4 -12 1 -19z m1843 0 c0 -13
-5 -30 -10 -38 -7 -11 -10 -5 -10 23 0 20 5 37 10 37 6 0 10 -10 10 -22z m-43
-10 c-3 -8 -6 -5 -6 6 -1 11 2 17 5 13 3 -3 4 -12 1 -19z m179 -54 c-1 -59 -5
-77 -18 -85 -13 -7 -20 -3 -32 23 -16 30 -13 55 3 29 11 -18 24 15 16 40 -4
11 -2 19 4 19 6 0 11 11 11 25 0 14 4 25 9 25 4 0 8 -34 7 -76z m-1046 -5 c0
-5 -4 -9 -10 -9 -5 0 -10 7 -10 16 0 8 5 12 10 9 6 -3 10 -10 10 -16z m110 1
c0 -5 -4 -10 -10 -10 -5 0 -10 5 -10 10 0 6 5 10 10 10 6 0 10 -4 10 -10z
m-1250 -76 c0 -8 -4 -12 -10 -9 -5 3 -10 10 -10 16 0 5 5 9 10 9 6 0 10 -7 10
-16z m30 6 c0 -5 -4 -10 -10 -10 -5 0 -10 5 -10 10 0 6 5 10 10 10 6 0 10 -4
10 -10z m2950 -27 c-1 -24 -2 -26 -11 -10 -5 9 -7 22 -4 27 10 17 15 11 15
-17z m-3330 -18 c0 -14 -4 -25 -10 -25 -5 0 -10 11 -10 25 0 14 5 25 10 25 6
0 10 -11 10 -25z m1037 -27 c-3 -8 -6 -5 -6 6 -1 11 2 17 5 13 3 -3 4 -12 1
-19z m1359 -25 c-10 -10 -19 5 -10 18 6 11 8 11 12 0 2 -7 1 -15 -2 -18z
m-2036 -19 c0 -8 -4 -12 -10 -9 -5 3 -10 10 -10 16 0 5 5 9 10 9 6 0 10 -7 10
-16z m2173 3 c9 -23 -7 -120 -20 -124 -9 -3 -12 14 -11 59 1 35 3 66 5 71 6
11 20 8 26 -6z m-2533 -32 c0 -19 -4 -35 -10 -35 -5 0 -10 16 -10 35 0 19 5
35 10 35 6 0 10 -16 10 -35z m1490 -36 c0 -10 -4 -19 -10 -19 -5 0 -10 12 -10
26 0 14 4 23 10 19 6 -3 10 -15 10 -26z m120 -10 c0 -24 -4 -38 -10 -34 -17
10 -11 75 7 75 2 0 3 -18 3 -41z m756 -37 c-12 -12 -18 8 -10 35 l8 28 4 -28
c2 -16 1 -31 -2 -35z m34 21 c0 -20 -3 -24 -11 -16 -7 7 -9 19 -6 27 10 24 17
19 17 -11z m-2743 -65 c-3 -7 -5 -2 -5 12 0 14 2 19 5 13 2 -7 2 -19 0 -25z
m723 -3 c0 -14 -4 -25 -10 -25 -5 0 -10 11 -10 25 0 14 5 25 10 25 6 0 10 -11
10 -25z m3132 -12 c23 -20 23 -49 1 -62 -15 -8 -16 -13 -5 -30 6 -12 12 -28
12 -36 0 -18 -56 -145 -64 -145 -14 0 -4 39 14 60 18 20 18 25 6 39 -19 21
-21 171 -3 183 17 11 18 10 39 -9z m-2062 -19 c0 -8 -4 -12 -10 -9 -5 3 -10
10 -10 16 0 5 5 9 10 9 6 0 10 -7 10 -16z m922 -36 c-9 -9 -12 -7 -12 12 0 19
3 21 12 12 9 -9 9 -15 0 -24z m128 22 c0 -5 -5 -10 -11 -10 -5 0 -7 5 -4 10 3
6 8 10 11 10 2 0 4 -4 4 -10z m-2843 -32 c-3 -8 -6 -5 -6 6 -1 11 2 17 5 13 3
-3 4 -12 1 -19z m3650 -100 c-3 -8 -6 -5 -6 6 -1 11 2 17 5 13 3 -3 4 -12 1
-19z m-4487 -87 c0 -21 -16 -2 -24 29 -7 24 -6 24 8 6 9 -11 16 -27 16 -35z
m2640 -12 c0 -11 -4 -17 -10 -14 -5 3 -10 15 -10 26 0 11 5 17 10 14 6 -3 10
-15 10 -26z m-1791 14 c0 -5 -4 -17 -9 -28 -8 -18 -9 -17 -9 8 -1 15 4 27 9
27 6 0 10 -3 9 -7z m1038 -115 c-3 -8 -6 -5 -6 6 -1 11 2 17 5 13 3 -3 4 -12
1 -19z m39 -20 c-3 -13 -6 -30 -6 -37 0 -11 -3 -12 -11 -4 -14 14 -4 63 12 63
7 0 9 -9 5 -22z m744 -58 c0 -5 -4 -10 -10 -10 -5 0 -10 5 -10 10 0 6 5 10 10
10 6 0 10 -4 10 -10z m-741 -17 c0 -5 -4 -17 -9 -28 -8 -18 -9 -17 -9 8 -1 15
4 27 9 27 6 0 10 -3 9 -7z m741 -18 c0 -8 -4 -15 -10 -15 -5 0 -10 7 -10 15 0
8 5 15 10 15 6 0 10 -7 10 -15z m117 -87 c-3 -8 -6 -5 -6 6 -1 11 2 17 5 13 3
-3 4 -12 1 -19z m-870 -80 c-2 -13 -4 -3 -4 22 0 25 2 35 4 23 2 -13 2 -33 0
-45z m705 -78 c-6 -43 -12 -37 -12 13 0 25 4 37 8 29 5 -7 7 -26 4 -42z
m-2314 -115 c-3 -3 -9 2 -12 12 -6 14 -5 15 5 6 7 -7 10 -15 7 -18z m123 -192
c13 -16 12 -17 -3 -4 -10 7 -18 15 -18 17 0 8 8 3 21 -13z m47 -78 c-3 -3 -9
2 -12 12 -6 14 -5 15 5 6 7 -7 10 -15 7 -18z m2307 -73 c-8 -8 -25 10 -19 20
4 6 9 5 15 -3 4 -7 6 -15 4 -17z m-1948 -384 c-3 -8 -6 -5 -6 6 -1 11 2 17 5
13 3 -3 4 -12 1 -19z m-6 -25 c13 -16 12 -17 -3 -4 -17 13 -22 21 -14 21 2 0
10 -8 17 -17z m2862 -167 c-10 -13 -20 -19 -22 -13 -2 5 4 16 15 24 26 19 27
16 7 -11z m-2264 -453 c13 -28 13 -28 -8 -9 -22 20 -27 36 -13 36 5 0 14 -12
21 -27z m1701 -67 c0 -3 -4 -8 -10 -11 -5 -3 -10 -1 -10 4 0 6 5 11 10 11 6 0
10 -2 10 -4z m-1413 -131 c19 0 35 6 38 14 5 12 11 9 30 -12 14 -14 25 -30 25
-35 0 -5 8 -16 19 -26 16 -15 20 -15 31 -1 7 8 17 12 24 8 6 -4 18 -6 27 -5
11 2 21 -8 27 -27 8 -23 20 -33 51 -42 23 -7 41 -16 41 -20 0 -18 -64 -41 -96
-36 -39 6 -208 116 -279 182 l-50 45 40 -22 c22 -13 55 -23 72 -23z m1073 -30
c0 -8 6 -12 13 -9 14 5 41 -42 32 -56 -7 -11 -65 -40 -80 -40 -7 0 -29 -11
-49 -25 -23 -16 -51 -25 -75 -25 -46 0 -69 21 -46 40 8 7 15 18 15 26 0 21 22
28 35 10 11 -14 14 -15 25 -1 12 14 15 14 32 -2 17 -16 20 -15 46 4 19 14 28
31 30 56 3 35 22 54 22 22z"/>
<path d="M3492 6770 c0 -19 2 -27 5 -17 2 9 2 25 0 35 -3 9 -5 1 -5 -18z"/>
<path d="M2761 6954 c0 -11 3 -14 6 -6 3 7 2 16 -1 19 -3 4 -6 -2 -5 -13z"/>
<path d="M2769 5730 c-3 -20 -4 -321 -1 -342 2 -16 11 -28 18 -28 10 0 14 19
16 73 1 39 1 81 0 92 -9 155 -13 190 -22 199 -5 5 -10 8 -11 6z"/>
<path d="M2770 4811 c0 -5 5 -13 10 -16 6 -3 10 -2 10 4 0 5 -4 13 -10 16 -5
3 -10 2 -10 -4z"/>
<path d="M2776 4724 c-8 -21 -8 -69 0 -61 8 7 17 77 10 77 -2 0 -7 -7 -10 -16z"/>
<path d="M2778 4600 c-14 -33 -18 -69 -9 -92 7 -19 10 -20 16 -7 8 21 2 119
-7 99z"/>
<path d="M2770 4169 c0 -5 5 -7 10 -4 6 3 10 8 10 11 0 2 -4 4 -10 4 -5 0 -10
-5 -10 -11z"/>
<path d="M2770 4060 c0 -5 4 -10 9 -10 6 0 13 5 16 10 3 6 -1 10 -9 10 -9 0
-16 -4 -16 -10z"/>
<path d="M2770 3955 c0 -16 9 -19 34 -9 20 8 11 24 -15 24 -10 0 -19 -7 -19
-15z"/>
<path d="M2760 3760 c0 -22 4 -28 15 -24 12 5 13 10 4 20 -6 7 -8 18 -4 24 3
5 1 10 -4 10 -6 0 -11 -13 -11 -30z"/>
<path d="M2242 6195 c0 -16 2 -22 5 -12 2 9 2 23 0 30 -3 6 -5 -1 -5 -18z"/>
<path d="M1850 5200 c0 -11 4 -20 9 -20 5 0 7 9 4 20 -3 11 -7 20 -9 20 -2 0
-4 -9 -4 -20z"/>
<path d="M1850 5060 c0 -11 5 -20 10 -20 6 0 10 9 10 20 0 11 -4 20 -10 20 -5
0 -10 -9 -10 -20z"/>
<path d="M1850 4870 c0 -5 5 -10 11 -10 5 0 7 5 4 10 -3 6 -8 10 -11 10 -2 0
-4 -4 -4 -10z"/>
<path d="M1850 4784 c0 -8 5 -12 10 -9 6 3 10 10 10 16 0 5 -4 9 -10 9 -5 0
-10 -7 -10 -16z"/>
<path d="M1855 4560 c-3 -5 1 -10 9 -10 9 0 16 5 16 10 0 6 -4 10 -9 10 -6 0
-13 -4 -16 -10z"/>
<path d="M1860 3965 c0 -34 12 -46 25 -24 9 14 -3 59 -15 59 -6 0 -10 -16 -10
-35z"/>
<path d="M1860 3704 c0 -8 5 -12 10 -9 6 3 10 10 10 16 0 5 -4 9 -10 9 -5 0
-10 -7 -10 -16z"/>
<path d="M1844 3599 c-3 -6 -2 -15 2 -19 12 -12 38 5 30 19 -9 14 -23 14 -32
0z"/>
<path d="M1850 3545 c0 -8 4 -15 10 -15 5 0 7 7 4 15 -4 8 -8 15 -10 15 -2 0
-4 -7 -4 -15z"/>
<path d="M1846 3503 c-12 -12 -6 -43 9 -43 8 0 15 9 15 19 0 21 -13 34 -24 24z"/>
<path d="M1860 3380 c0 -5 -6 -7 -13 -4 -9 3 -12 -6 -9 -37 3 -22 -1 -46 -7
-52 -7 -7 -11 -50 -11 -109 0 -80 3 -96 14 -92 17 6 39 62 30 75 -3 5 -12 9
-20 9 -8 0 -14 10 -14 26 0 19 4 25 14 21 23 -9 28 24 26 146 -1 24 -10 41
-10 17z"/>
<path d="M6713 3528 c-13 -34 -21 -63 -19 -65 6 -6 47 108 44 118 -2 5 -13
-19 -25 -53z"/>
<path d="M6676 3435 c-9 -26 -7 -32 5 -12 6 10 9 21 6 23 -2 3 -7 -2 -11 -11z"/>
</g>
</svg>
